<svg xmlns="http://www.w3.org/2000/svg" xmlns:xlink="http://www.w3.org/1999/xlink" width="1080" zoomAndPan="magnify" viewBox="0 0 810 809.999993" height="1080" preserveAspectRatio="xMidYMid meet" version="1.2"><defs><clipPath id="9017fb3969"><path d="M 35 311 L 771.332031 311 L 771.332031 551 L 35 551 Z M 35 311 "/></clipPath></defs><g id="4412d6098c"><g clip-rule="nonzero" clip-path="url(#9017fb3969)"><path style=" stroke:none;fill-rule:nonzero;fill:#ffffff;fill-opacity:1;" d="M 851.679688 377.246094 C 847.648438 383.210938 836.757812 402.964844 837.402344 432.632812 C 838.289062 473.34375 892.492188 488.339844 923.707031 451.65625 C 956.050781 413.6875 938.628906 375.3125 908.867188 373.214844 C 886.363281 371.601562 871.359375 384.582031 865.070312 391.433594 C 865.070312 391.355469 865.148438 391.355469 865.148438 391.273438 C 871.28125 376.601562 857.730469 368.378906 851.679688 377.246094 Z M 905.960938 394.902344 C 937.582031 405.460938 917.335938 457.945312 883.941406 452.867188 C 861.519531 449.480469 857.324219 432.390625 858.777344 416.347656 C 865.070312 401.351562 890.152344 389.582031 905.960938 394.902344 Z M 1021.222656 335.164062 C 1014.207031 335.164062 994.363281 332.097656 979.28125 331.617188 C 985.734375 345.886719 998.640625 381.117188 997.027344 432.953125 C 994.769531 506.398438 953.875 546.222656 896.769531 546.464844 C 844.984375 546.707031 815.949219 513.410156 811.914062 500.914062 C 808.285156 489.386719 816.511719 489.710938 820.0625 493.5 C 827.078125 500.835938 832.804688 507.121094 845.226562 512.847656 C 886.441406 531.792969 960.730469 521.554688 968.394531 449.964844 C 975.007812 388.128906 956.9375 345.402344 949.597656 332.503906 C 901.527344 333.390625 848.777344 346.128906 821.917969 356.445312 C 799.332031 365.074219 796.589844 350.882812 797.074219 344.675781 C 797.394531 340.5625 800.703125 331.210938 811.59375 328.230469 C 902.332031 303.800781 1001.625 319.199219 1015.335938 321.378906 C 1029.773438 323.714844 1028.320312 335.164062 1021.222656 335.164062 Z M 1082.929688 351.285156 C 1097.851562 346.207031 1123.582031 339.03125 1142.132812 335.648438 C 1110.996094 357.171875 1069.378906 416.75 1101.078125 463.832031 C 1137.453125 517.84375 1240.210938 495.515625 1242.308594 425.941406 C 1244.328125 357.898438 1163.585938 353.867188 1142.695312 391.597656 C 1124.871094 423.761719 1149.792969 444.160156 1164.878906 444.886719 C 1166.894531 450.609375 1170.121094 453.996094 1172.703125 453.671875 C 1177.378906 452.945312 1176.410156 448.835938 1174.554688 443.433594 C 1178.914062 441.578125 1193.671875 434.164062 1196.816406 418.925781 C 1200.527344 401.027344 1176.816406 393.53125 1166.734375 416.023438 C 1164.152344 421.746094 1163.101562 427.308594 1163.023438 432.308594 C 1162.941406 432.308594 1162.941406 432.308594 1162.859375 432.308594 C 1135.4375 423.601562 1157.78125 373.699219 1200.285156 391.273438 C 1238.839844 407.234375 1213.351562 484.226562 1146.972656 463.507812 C 1083.089844 443.59375 1132.453125 337.824219 1190.125 328.875 C 1210.773438 327.90625 1235.050781 329.277344 1251.828125 331.859375 C 1265.621094 333.953125 1266.265625 322.023438 1256.585938 319.039062 C 1229.484375 310.65625 1135.757812 305.011719 1080.1875 322.746094 C 1071.070312 325.648438 1064.699219 331.9375 1064.296875 340.726562 C 1063.894531 349.269531 1072.199219 354.996094 1082.929688 351.285156 Z M 1183.914062 409.574219 C 1193.835938 410.621094 1185.445312 428.601562 1172.460938 432.390625 C 1172.621094 422.554688 1176.089844 408.769531 1183.914062 409.574219 Z M 1291.269531 501.640625 C 1286.832031 497.367188 1282.476562 492.773438 1278.6875 487.53125 C 1282.074219 481.648438 1291.59375 462.945312 1289.171875 441.660156 C 1286.269531 415.863281 1259.007812 417.957031 1257.230469 450.042969 C 1256.507812 463.347656 1257.957031 474.070312 1260.863281 482.695312 C 1243.519531 503.980469 1207.867188 523.972656 1163.75 522.84375 C 1120.757812 521.714844 1078.410156 506.558594 1056.472656 470.523438 C 1051.230469 461.894531 1044.132812 461.976562 1044.050781 470.683594 C 1043.890625 487.050781 1081.394531 548.640625 1162.457031 550.253906 C 1218.273438 551.300781 1253.039062 527.035156 1270.945312 500.671875 C 1274.652344 505.027344 1278.847656 508.414062 1283.203125 511.152344 C 1292.480469 516.957031 1296.753906 506.882812 1291.269531 501.640625 Z M 1272.558594 432.953125 C 1278.445312 433.113281 1280.140625 449.398438 1269.332031 469.714844 C 1269.167969 469.152344 1268.925781 468.667969 1268.765625 468.101562 C 1264.25 453.59375 1266.023438 432.871094 1272.558594 432.953125 Z M 96.632812 546.625 C 115.585938 550.738281 133.734375 548.882812 150.996094 539.773438 C 170.597656 529.375 184.875 513.574219 196.085938 494.707031 C 196.972656 493.257812 197.457031 491.5625 199.3125 490.355469 C 200.117188 494.707031 200.683594 498.738281 201.488281 502.6875 C 206.328125 525.746094 225.605469 535.742188 247.222656 526.308594 C 255.773438 522.601562 261.902344 516.070312 267.304688 508.574219 C 268.4375 507.042969 269.082031 504.058594 270.773438 504.300781 C 272.792969 504.542969 272.550781 507.605469 273.195312 509.460938 C 276.5 518.894531 281.988281 526.230469 292.148438 528.808594 C 300.78125 530.984375 308.847656 528.972656 316.425781 524.699219 C 324.734375 520.023438 330.785156 512.925781 336.429688 505.429688 C 337.078125 504.542969 337.480469 502.929688 338.691406 503.253906 C 339.980469 503.574219 339.414062 505.1875 339.414062 506.234375 C 339.578125 510.1875 340.222656 513.976562 341.269531 517.765625 C 344.335938 528.730469 351.515625 530.824219 361.433594 528.566406 C 365.308594 527.679688 367.644531 525.421875 368.613281 521.390625 C 371.195312 510.265625 374.90625 499.542969 379.261719 488.984375 C 386.84375 470.601562 396.039062 453.1875 408.621094 437.628906 C 411.847656 433.679688 415.234375 429.730469 419.671875 427.070312 C 423.625 424.730469 426.527344 426.179688 427.171875 430.695312 C 427.496094 432.710938 427.332031 434.808594 427.089844 436.824219 C 425.15625 451.253906 421.121094 465.28125 418.621094 479.632812 C 417.171875 488.175781 416.445312 496.722656 417.734375 505.347656 C 418.785156 511.960938 420.878906 518.167969 425.960938 522.84375 C 433.058594 529.453125 441.53125 530.664062 450.644531 528.164062 C 458.789062 525.90625 465.164062 520.746094 470.808594 514.621094 C 481.050781 503.414062 488.230469 490.355469 494.117188 476.488281 C 495.007812 474.390625 495.488281 472.054688 497.183594 470.359375 C 498.152344 471.003906 498.152344 471.890625 498.234375 472.617188 C 499.199219 480.4375 500.652344 488.175781 502.589844 495.835938 C 504.765625 504.382812 507.425781 512.765625 512.105469 520.34375 C 517.832031 529.535156 524.609375 531.550781 534.285156 526.632812 C 540.09375 523.730469 545.09375 519.617188 549.691406 515.023438 C 567.113281 497.851562 580.261719 477.617188 591.3125 455.929688 C 592.363281 453.832031 593.492188 453.109375 595.828125 453.269531 C 604.300781 453.832031 612.363281 452.300781 619.785156 447.867188 C 620.351562 447.546875 621.074219 446.820312 621.722656 447.304688 C 622.527344 447.949219 621.882812 448.835938 621.640625 449.5625 C 619.460938 455.929688 617.445312 462.460938 616.71875 469.230469 C 615.1875 482.695312 614.863281 495.996094 619.625 508.976562 C 625.914062 525.988281 641.886719 533.566406 659.148438 527.761719 C 669.957031 524.132812 677.617188 516.714844 683.988281 507.605469 C 684.878906 506.316406 685.441406 503.898438 687.054688 504.140625 C 688.75 504.300781 688.507812 506.800781 688.992188 508.25 C 693.832031 525.261719 708.027344 533 725.046875 527.84375 C 738.835938 523.648438 748.515625 514.699219 755.292969 502.367188 C 758.761719 496.078125 760.777344 489.304688 759.890625 481.96875 C 759.566406 479.632812 759.324219 476.730469 756.097656 476.328125 C 752.710938 475.921875 752.628906 479.066406 751.90625 481.082031 C 749.082031 488.257812 745.855469 495.191406 741.417969 501.558594 C 738.917969 505.109375 736.015625 508.332031 732.222656 510.507812 C 726.660156 513.734375 722.140625 511.878906 720.527344 505.589844 C 720.042969 503.574219 719.882812 501.558594 719.800781 499.464844 C 719.558594 489.226562 721.65625 479.230469 723.675781 469.3125 C 727.546875 450.609375 732.546875 432.226562 738.273438 414.089844 C 739.078125 411.507812 739.5625 408.929688 739.484375 406.269531 C 739.320312 402.078125 737.222656 399.578125 733.03125 399.011719 C 725.933594 398.046875 719.398438 399.335938 713.589844 403.929688 C 709.882812 406.914062 706.898438 410.542969 704.394531 414.574219 C 703.914062 415.296875 703.589844 416.507812 702.621094 416.507812 C 701.332031 416.425781 701.410156 415.054688 701.089844 414.167969 C 698.265625 405.382812 692.378906 399.980469 683.183594 398.53125 C 678.828125 397.882812 674.390625 397.882812 670.035156 398.691406 C 659.550781 400.707031 651.242188 406.589844 643.742188 413.847656 C 638.820312 418.601562 635.03125 424.488281 630.191406 429.40625 C 622.851562 436.824219 614.460938 442.226562 603.492188 442.144531 C 598.652344 442.0625 598.25 441.417969 599.941406 436.984375 C 604.300781 425.535156 607.929688 413.925781 608.65625 401.59375 C 608.894531 397.640625 608.734375 393.773438 607.929688 389.984375 C 604.460938 374.183594 592.121094 369.75 578.246094 374.828125 C 566.632812 379.101562 560.90625 388.773438 558.808594 400.304688 C 555.257812 420.054688 559.773438 436.984375 577.84375 448.351562 C 579.535156 449.398438 579.214844 450.527344 578.570312 451.980469 C 572.519531 465.363281 565.339844 478.101562 556.710938 490.03125 C 553.402344 494.628906 549.933594 499.0625 545.417969 502.609375 C 541.0625 505.996094 538.402344 505.269531 536.0625 500.269531 C 534.769531 497.53125 533.882812 494.789062 533.320312 491.804688 C 529.125 470.28125 528.964844 448.433594 529.285156 426.585938 C 529.367188 419.167969 529.929688 411.832031 530.738281 404.496094 C 530.980469 401.996094 530.496094 399.578125 527.59375 399.011719 C 517.429688 397.078125 507.75 398.691406 501.863281 407.558594 C 498.234375 413.121094 496.214844 419.25 495.894531 425.777344 C 495.007812 443.757812 491.214844 460.847656 482.90625 476.890625 C 478.066406 486.242188 472.664062 495.191406 464.03125 501.640625 C 460.886719 503.980469 457.339844 506.234375 453.226562 504.382812 C 449.03125 502.445312 449.03125 498.175781 448.789062 494.222656 C 448.464844 487.9375 449.675781 481.808594 450.886719 475.601562 C 453.386719 462.378906 457.5 449.5625 459.515625 436.257812 C 460.886719 427.230469 461.453125 418.28125 457.902344 409.574219 C 455.160156 402.800781 450.160156 398.933594 442.738281 398.289062 C 433.542969 397.480469 426.203125 401.511719 419.347656 406.914062 C 407.894531 415.863281 399.265625 427.390625 391.441406 439.484375 C 389.101562 443.113281 386.84375 446.820312 384.34375 450.851562 C 383.535156 449.320312 383.9375 448.433594 384.179688 447.625 C 385.875 441.257812 386.84375 434.808594 387.488281 428.277344 C 388.214844 421.265625 388.617188 414.167969 386.035156 407.316406 C 384.34375 402.722656 380.953125 399.898438 376.113281 399.253906 C 372.808594 398.851562 369.5 399.011719 366.355469 400.140625 C 360.871094 402.15625 357.078125 403.207031 358.207031 411.265625 C 358.289062 411.671875 358.207031 412.074219 358.207031 412.476562 C 355.789062 441.660156 347.078125 468.910156 331.914062 493.902344 C 327.960938 500.429688 323.203125 506.476562 315.945312 509.703125 C 309.085938 512.765625 304.730469 510.105469 304.007812 502.609375 C 303.523438 497.609375 303.765625 492.53125 304.410156 487.613281 C 307.957031 462.78125 314.734375 438.675781 321.992188 414.8125 C 322.636719 412.636719 323.285156 410.460938 323.527344 408.203125 C 324.007812 403.207031 321.671875 400.0625 316.75 399.335938 C 309.652344 398.289062 303.117188 399.738281 297.390625 404.253906 C 293.84375 407.074219 291.019531 410.621094 288.519531 414.410156 C 287.953125 415.296875 287.550781 416.828125 286.34375 416.667969 C 285.132812 416.425781 285.210938 414.894531 284.808594 413.847656 C 281.503906 404.332031 274.644531 399.253906 264.726562 398.367188 C 254.160156 397.480469 244.882812 400.785156 236.496094 406.832031 C 221.25 417.878906 211.570312 432.953125 205.199219 450.367188 C 198.828125 467.699219 190.519531 483.984375 178.5 498.175781 C 166.726562 512.121094 152.933594 523.167969 134.21875 526.148438 C 115.101562 529.210938 98.566406 524.457031 86.308594 508.574219 C 78.726562 498.738281 74.933594 487.210938 73.242188 475.117188 C 66.707031 429.164062 79.371094 389.097656 111.554688 355.480469 C 121.71875 344.835938 133.898438 336.695312 148.738281 333.871094 C 165.113281 330.730469 179.710938 337.421875 181.40625 357.65625 C 182.128906 366.605469 180.113281 374.90625 176.484375 383.050781 C 174.546875 387.324219 171.886719 391.273438 170.597656 395.867188 C 169.46875 399.898438 171.242188 402.320312 175.355469 402.480469 C 180.355469 402.722656 184.875 401.027344 188.988281 398.367188 C 199.957031 391.355469 205.683594 380.953125 208.265625 368.457031 C 211.652344 352.011719 205.039062 335.96875 190.921875 326.859375 C 179.628906 319.523438 166.964844 317.425781 153.898438 317.347656 C 133.007812 317.265625 114.054688 323.632812 97.035156 335.164062 C 63.964844 357.496094 44.367188 388.773438 37.429688 427.957031 C 32.910156 453.269531 34.445312 478.261719 44.203125 502.285156 C 53.882812 525.988281 71.226562 541.144531 96.632812 546.625 Z M 648.257812 480.839844 C 650.355469 461.734375 656.164062 443.835938 667.292969 427.957031 C 670.117188 423.925781 673.585938 420.378906 677.941406 417.878906 C 685.117188 413.765625 691.976562 416.183594 694.636719 424.003906 C 696.167969 428.519531 696.492188 433.195312 696.410156 437.953125 C 696.089844 453.109375 692.460938 467.539062 686.894531 481.484375 C 684.070312 488.660156 680.601562 495.515625 675.84375 501.640625 C 674.230469 503.65625 672.457031 505.511719 670.4375 507.042969 C 663.019531 512.6875 654.710938 510.507812 651.082031 501.882812 C 648.257812 495.191406 647.453125 488.097656 648.257812 480.839844 Z M 577.117188 409.332031 C 577.117188 402.722656 577.761719 397.402344 580.503906 392.484375 C 581.796875 390.0625 583.488281 387.886719 586.632812 388.289062 C 589.941406 388.695312 590.992188 391.273438 591.796875 394.09375 C 592.683594 397.320312 592.523438 400.625 592.199219 403.851562 C 591.3125 412.800781 589.457031 421.585938 586.875 430.210938 C 586.632812 431.097656 586.554688 432.226562 585.585938 432.46875 C 584.375 432.710938 583.890625 431.421875 583.410156 430.617188 C 578.8125 423.925781 577.277344 416.265625 577.117188 409.332031 Z M 232.625 476.890625 C 235.203125 459.074219 240.6875 442.226562 251.496094 427.472656 C 254.320312 423.519531 257.789062 420.214844 262.0625 417.796875 C 268.757812 414.089844 274.886719 415.941406 278.113281 422.875 C 280.453125 427.875 280.375 433.195312 280.535156 438.597656 C 279.164062 460.929688 273.355469 481.890625 260.691406 500.671875 C 259.078125 503.09375 257.0625 505.109375 254.804688 506.882812 C 246.980469 513.089844 238.109375 510.671875 234.640625 501.238281 C 231.574219 493.257812 231.414062 485.113281 232.625 476.890625 Z M 232.625 476.890625 "/></g></g></svg>