<svg xmlns="http://www.w3.org/2000/svg" xmlns:xlink="http://www.w3.org/1999/xlink" width="1080" zoomAndPan="magnify" viewBox="0 0 810 809.999993" height="1080" preserveAspectRatio="xMidYMid meet" version="1.2"><defs><clipPath id="2611d33c42"><path d="M 94.082031 167.925781 L 614 167.925781 L 614 300 L 94.082031 300 Z M 94.082031 167.925781 "/></clipPath><filter x="0%" y="0%" width="100%" filterUnits="objectBoundingBox" id="846cd50f43" height="100%"><feColorMatrix values="0 0 0 0 1 0 0 0 0 1 0 0 0 0 1 0 0 0 1 0" type="matrix" in="SourceGraphic"/></filter><clipPath id="8edf8f9c4d"><path d="M 0.558594 1 L 519 1 L 519 132.519531 L 0.558594 132.519531 Z M 0.558594 1 "/></clipPath><clipPath id="861eed3356"><rect x="0" width="520" y="0" height="133"/></clipPath><clipPath id="c34a4b0e5e"><path d="M 0.160156 2 L 328 2 L 328 202 L 0.160156 202 Z M 0.160156 2 "/></clipPath><clipPath id="95711a7ff8"><rect x="0" width="329" y="0" height="203"/></clipPath><clipPath id="ed32e7d6b8"><path d="M 0.441406 1 L 239 1 L 239 126 L 0.441406 126 Z M 0.441406 1 "/></clipPath><clipPath id="624859452a"><rect x="0" width="240" y="0" height="128"/></clipPath><clipPath id="f93d3d2d3e"><path d="M 96 186 L 715.832031 186 L 715.832031 544 L 96 544 Z M 96 186 "/></clipPath><clipPath id="e251d5a302"><path d="M 1 1 L 619.832031 1 L 619.832031 356 L 1 356 Z M 1 1 "/></clipPath><clipPath id="29452f6a54"><rect x="0" width="620" y="0" height="358"/></clipPath><clipPath id="3abf76af86"><path d="M 94.082031 509 L 614 509 L 614 641.925781 L 94.082031 641.925781 Z M 94.082031 509 "/></clipPath><clipPath id="e1f288ab9f"><path d="M 0.558594 1 L 518 1 L 518 132.925781 L 0.558594 132.925781 Z M 0.558594 1 "/></clipPath><clipPath id="b613e8a0ca"><rect x="0" width="520" y="0" height="133"/></clipPath></defs><g id="ddcdcb15eb"><g clip-rule="nonzero" clip-path="url(#2611d33c42)"><g mask="url(#7e3be0dc86)" transform="matrix(1,0,0,1,94,167)"><g clip-path="url(#861eed3356)"><g clip-rule="nonzero" clip-path="url(#8edf8f9c4d)"><path style=" stroke:none;fill-rule:nonzero;fill:#feffff;fill-opacity:1;" d="M 404.332031 1.664062 C 413.792969 1.664062 452.457031 0.890625 457.878906 1.847656 C 462.601562 2.683594 466.867188 4.597656 471.355469 6.09375 C 487.449219 11.460938 501.835938 24.035156 509.835938 38.886719 C 513.074219 44.902344 516.359375 50.617188 518.070312 58.164062 L 458.617188 89.183594 C 459.308594 86.417969 458.808594 84.296875 458.429688 82.164062 C 456.574219 71.652344 446.394531 66.550781 436.71875 65.472656 C 430.765625 64.8125 343.429688 64.621094 337.753906 65.253906 C 327.316406 66.414062 278.789062 65.546875 264.5625 65.546875 C 226.996094 65.546875 189.496094 65.917969 151.933594 65.917969 C 133.960938 65.917969 115.992188 65.917969 98.019531 65.917969 C 93.464844 65.917969 88.9375 65.308594 84.355469 65.546875 C 82.214844 65.660156 80.0625 66.316406 78.042969 66.988281 C 72.664062 68.78125 68.148438 74.511719 66.410156 79.726562 C 65.382812 82.8125 65.453125 86.144531 64.894531 89.292969 C 64.78125 89.945312 64.492188 90.53125 63.972656 90.953125 C 61.144531 93.265625 4.605469 130.8125 1.453125 132.386719 C 1.453125 123.332031 0.339844 74.75 0.976562 71.160156 C 4.179688 52.992188 10.589844 40.699219 22.132812 26.589844 C 23.640625 24.746094 25.253906 22.761719 27.121094 21.234375 C 35.765625 14.160156 46.25 6.433594 57.585938 4.433594 C 61.882812 3.675781 132.027344 3.878906 142.332031 3.878906 C 149.613281 3.878906 156.863281 3.890625 164.121094 3.511719 C 185.101562 2.40625 214.039062 4.613281 235.019531 3.511719 C 248.894531 2.78125 262.871094 3.871094 276.75 3.140625 C 289.152344 2.488281 301.640625 3.425781 314.046875 2.773438 C 325.710938 2.15625 337.457031 3.015625 349.125 2.402344 C 367.148438 1.453125 385.347656 2.035156 404.332031 1.664062 Z M 404.332031 1.664062 "/></g></g><mask id="7e3be0dc86"><g filter="url(#846cd50f43)"><rect x="0" width="810" y="0" height="809.999993" style="fill:#000000;fill-opacity:0.996;stroke:none;"/></g></mask></g></g><g mask="url(#2ec4ce8950)" transform="matrix(1,0,0,1,386,414)"><g clip-path="url(#95711a7ff8)"><g clip-rule="nonzero" clip-path="url(#c34a4b0e5e)"><path style=" stroke:none;fill-rule:nonzero;fill:#feffff;fill-opacity:1;" d="M 69.496094 2.078125 C 72.816406 2.078125 86.808594 9.710938 89.917969 11.382812 C 105.230469 19.628906 121.855469 26.394531 137.183594 34.648438 C 142.289062 37.394531 147.738281 39.503906 152.84375 42.253906 C 178.058594 55.832031 204.65625 66.859375 229.871094 80.4375 C 240.402344 86.105469 251.617188 90.5 262.148438 96.167969 C 268.023438 99.332031 325.234375 127.785156 327.988281 128.371094 L 327.988281 201.855469 L 1.179688 41.960938 C 0.25 40.683594 0.0976562 39.226562 0.441406 37.527344 Z M 69.496094 2.078125 "/></g></g><mask id="2ec4ce8950"><g filter="url(#846cd50f43)"><rect x="0" width="810" y="0" height="809.999993" style="fill:#000000;fill-opacity:0.996;stroke:none;"/></g></mask></g><g mask="url(#7d542c9142)" transform="matrix(1,0,0,1,97,267)"><g clip-path="url(#624859452a)"><g clip-rule="nonzero" clip-path="url(#ed32e7d6b8)"><path style=" stroke:none;fill-rule:nonzero;fill:#feffff;fill-opacity:1;" d="M 61.230469 1.367188 C 64.960938 1.367188 96.664062 17.621094 101.59375 20.273438 C 110.667969 25.160156 120.359375 28.902344 129.4375 33.789062 C 151.988281 45.933594 175.789062 55.765625 198.34375 67.910156 C 203.921875 70.914062 223.03125 80.445312 228.511719 82.792969 C 230.464844 83.628906 238.433594 86.734375 238.59375 88.8125 C 238.75 90.851562 224.429688 97.09375 221.976562 98.414062 C 217.214844 100.976562 168.277344 125.679688 167.214844 125.925781 C 165.121094 126.40625 137.050781 111.972656 133.128906 109.859375 C 123.8125 104.84375 113.867188 100.992188 104.546875 95.976562 C 82.628906 84.175781 59.441406 74.726562 37.523438 62.925781 C 28.21875 57.914062 18.355469 53.941406 9.054688 48.929688 C 7.476562 48.082031 0.449219 45.335938 0.449219 43.648438 C 0.449219 41.496094 12.285156 34.367188 14.59375 32.828125 C 22.632812 27.46875 54.980469 4.863281 61.230469 1.367188 Z M 61.230469 1.367188 "/></g></g><mask id="7d542c9142"><g filter="url(#846cd50f43)"><rect x="0" width="810" y="0" height="809.999993" style="fill:#000000;fill-opacity:0.996;stroke:none;"/></g></mask></g><g clip-rule="nonzero" clip-path="url(#f93d3d2d3e)"><g mask="url(#0e81c4c68b)" transform="matrix(1,0,0,1,96,186)"><g clip-path="url(#29452f6a54)"><g clip-rule="nonzero" clip-path="url(#e251d5a302)"><path style=" stroke:none;fill-rule:nonzero;fill:#feffff;fill-opacity:1;" d="M 618.359375 1.867188 L 619.097656 1.867188 C 619.097656 21.375 619.097656 40.148438 619.097656 58.917969 C 619.097656 61.761719 619.664062 77.753906 618.578125 79.082031 C 617.160156 80.816406 583.003906 96.875 577.847656 99.648438 C 568.902344 104.464844 559.613281 108.644531 550.667969 113.460938 C 548.871094 114.429688 546.789062 114.925781 544.984375 115.898438 C 521.730469 128.417969 497.335938 138.828125 474.082031 151.347656 C 459.304688 159.304688 443.808594 165.917969 429.03125 173.875 C 417.160156 180.265625 404.710938 185.578125 392.84375 191.96875 C 362.867188 208.109375 331.382812 221.398438 301.410156 237.535156 C 294.144531 241.449219 286.519531 244.703125 279.253906 248.613281 C 269.804688 253.703125 259.898438 257.929688 250.449219 263.015625 C 231.875 273.019531 212.378906 281.300781 193.804688 291.304688 C 173.957031 301.988281 153.234375 311.046875 133.390625 321.730469 C 131.582031 322.703125 129.503906 323.199219 127.703125 324.167969 C 120.679688 327.949219 113.308594 331.09375 106.285156 334.878906 C 99.496094 338.535156 68.828125 354.519531 63.375 355.484375 C 61.148438 355.875 48.820312 346.253906 46.425781 344.292969 C 41.945312 340.625 6.769531 315.023438 1.671875 312.054688 C 1.050781 309.574219 0.742188 308.082031 2.113281 306.40625 C 4.640625 303.316406 28.507812 292.589844 34.054688 289.605469 C 43.191406 284.683594 52.835938 280.710938 61.972656 275.792969 C 62.976562 275.253906 64.140625 275.082031 65.148438 274.539062 C 86.980469 262.785156 109.949219 253.199219 131.765625 241.449219 C 136.144531 239.09375 140.828125 237.308594 145.207031 234.953125 C 149.160156 232.824219 153.292969 231.023438 157.246094 228.894531 C 158.253906 228.351562 159.453125 228.21875 160.457031 227.675781 C 173.214844 220.808594 186.585938 215.085938 199.34375 208.214844 C 202.28125 206.632812 205.507812 205.578125 208.425781 204.007812 C 221.671875 196.875 235.582031 190.976562 248.824219 183.84375 C 251.046875 182.648438 253.539062 181.960938 255.730469 180.78125 C 269.210938 173.519531 283.347656 167.46875 296.832031 160.210938 C 299.050781 159.015625 301.542969 158.328125 303.738281 157.144531 C 316.976562 150.015625 330.859375 144.074219 344.097656 136.945312 C 346.402344 135.707031 348.980469 135 351.261719 133.769531 C 373.738281 121.667969 397.339844 111.742188 419.800781 99.648438 C 427.648438 95.425781 435.957031 92.058594 443.800781 87.832031 C 444.8125 87.289062 446.007812 87.15625 447.015625 86.613281 C 453.617188 83.058594 460.460938 79.941406 467.066406 76.386719 C 475.15625 72.03125 483.71875 68.554688 491.808594 64.199219 C 492.898438 63.613281 494.1875 63.457031 495.277344 62.871094 C 516.785156 51.289062 539.375 41.796875 560.863281 30.226562 C 565.558594 27.695312 570.566406 25.738281 575.261719 23.210938 C 581.421875 19.894531 615.347656 4.125 618.359375 1.867188 Z M 618.359375 1.867188 "/></g></g><mask id="0e81c4c68b"><g filter="url(#846cd50f43)"><rect x="0" width="810" y="0" height="809.999993" style="fill:#000000;fill-opacity:0.996;stroke:none;"/></g></mask></g></g><g clip-rule="nonzero" clip-path="url(#3abf76af86)"><g mask="url(#8a63a4f6b9)" transform="matrix(1,0,0,1,94,509)"><g clip-path="url(#b613e8a0ca)"><g clip-rule="nonzero" clip-path="url(#e1f288ab9f)"><path style=" stroke:none;fill-rule:nonzero;fill:#feffff;fill-opacity:1;" d="M 1.453125 1.242188 C 18.324219 12.488281 34.820312 23.363281 51.269531 34.328125 C 55.429688 37.101562 60.097656 39.503906 63.972656 42.675781 C 66.4375 44.691406 63.769531 62.007812 78.78125 67.011719 C 80.261719 67.503906 82.058594 68 83.617188 68.082031 C 89.054688 68.367188 94.449219 67.710938 99.867188 67.710938 C 119.683594 67.710938 139.5 67.710938 159.320312 67.710938 C 165.128906 67.710938 170.886719 67.777344 176.675781 68.082031 C 182.425781 68.382812 188.273438 68.082031 194.03125 68.082031 C 207.203125 68.082031 220.371094 68.082031 233.542969 68.082031 C 268.152344 68.082031 302.710938 68.449219 337.308594 68.449219 C 360.203125 68.449219 383.097656 68.449219 405.996094 68.449219 C 416.039062 68.449219 426.246094 68.976562 436.273438 68.449219 C 449.25 67.765625 458.984375 58.863281 458.984375 44.816406 C 462.21875 45.625 498.179688 65.3125 503.667969 68.265625 C 505.671875 69.34375 517.101562 74.671875 517.664062 75.910156 C 518.550781 77.863281 514.3125 86.796875 513.195312 88.871094 C 506.308594 101.65625 497.273438 114.402344 484.132812 121.476562 C 475.917969 125.902344 467.167969 130.140625 457.878906 131.78125 C 451.210938 132.957031 387.808594 131.597656 375.34375 131.597656 C 357.972656 131.597656 340.597656 131.769531 323.277344 130.859375 C 302.269531 129.75 274.859375 131.964844 253.855469 130.859375 C 235.953125 129.914062 217.878906 130.488281 199.941406 130.488281 C 180.714844 130.488281 161.546875 130.117188 142.332031 130.117188 C 134.421875 130.117188 59.226562 129.507812 57.878906 129.269531 C 48.675781 127.644531 38.835938 122.214844 31.660156 116.34375 C 15.242188 102.910156 4.6875 83.636719 1.011719 62.800781 C 0.0976562 57.613281 1.453125 12.113281 1.453125 1.242188 Z M 1.453125 1.242188 "/></g></g><mask id="8a63a4f6b9"><g filter="url(#846cd50f43)"><rect x="0" width="810" y="0" height="809.999993" style="fill:#000000;fill-opacity:0.996;stroke:none;"/></g></mask></g></g></g></svg>