<svg height="2500" viewBox="-10.39506321 -10.39506222 469.62862739 464.48137144" width="2500" xmlns="http://www.w3.org/2000/svg"><path d="m226 0c-124.82 0-226 101.18-226 226s101.18 226 226 226 226-101.18 226-226-101.18-226-226-226zm147.08 373.08a207.32 207.32 0 1 1 44.58-66.08 207.29 207.29 0 0 1 -44.58 66.08z" fill="#141419"/><path d="m434 226a208.06 208.06 0 0 1 -399.66 81 208.073 208.073 0 0 1 383.32-162 206.7 206.7 0 0 1 16.34 81z" fill="#141419"/><path d="m178.26 116.83h72.59c6.73.25 10.68 5.85 12.07 11.87 7-3.69 13.92-7.46 20.92-11.07q.06 8.94 0 17.91c-16.68 9.21-33.84 17.58-50.47 26.91 16.95 8.53 33.73 17.39 50.47 26.31v18.07c-7-3.64-14.11-7.26-21-11.14-1.19 5.57-4.38 10.66-10.25 12h-75.03a14.94 14.94 0 0 1 -9.45-8.14v-21.42c10.13-5.36 20.4-10.43 30.42-16-10.19-5.05-20.34-10.17-30.42-15.47v-20.15a11.8 11.8 0 0 1 10.15-9.68m.13 17.29c12.66 5.93 24.93 12.54 37.26 19.07 12.4-6.3 24.67-12.8 37-19.3-24.73.1-49.48-.3-74.22.23m.31 56.46c24.64.24 49.27 0 73.91.13-12-6.86-24.54-12.84-36.7-19.49q-18.57 9.72-37.21 19.36m-108.85 66.42c13.18-9.65 31.15-8.76 45.6-2.59.21 4.7.27 9.41.3 14.13-11-5.32-25.28-8.92-36.07-1.25-10.67 7-10.89 25-.06 31.91 10.79 7.67 25.24 4.6 36.1-1.29v14c-14.91 7-34.15 7.3-47.39-3.41-15.74-12.5-15.05-40.03 1.52-51.5m183.62 1.89c13.17-11.61 33.11-11.39 48.33-4.11q-.06 7 0 14c-10.6-5.64-24.26-8.67-35.2-2.21s-12.39 23.82-2.33 31.66c10.66 9 26.11 5.46 37.49-.26 0 4.69 0 9.39-.07 14.11-14.72 6.38-33.2 7.34-46.47-2.83-15.69-11.57-16.6-37.72-1.75-50.33m111.21 9.19 12.61-6.93v9.17c5.83 0 11.7 0 17.56-.06v10.21h-17.54c.32 7.09-1 14.44.79 21.37 3.28 6.3 11.31 4.26 16.86 3-.15 3.6-.25 7.21-.38 10.81-7.08 1.18-14.81 2.45-21.47-1.06-5.25-2.27-8.4-7.95-8.36-13.56-.21-11 .08-22-.07-32.95m-232.81 5.62c8.71-6.93 22.35-5.58 30 2.39-.1-1.17-.27-3.5-.34-4.66h12.86v44.32l-12.69-.06v-5.13c-7.08 6.91-18.37 8.27-27.16 4-14.24-8-15.51-31-2.67-40.85m12.67 6.82c-9.55 3.07-11.23 17.6-3.3 23.33 7.56 5.69 20.21 1.14 21-8.73 2-9.71-8.56-18.33-17.71-14.6m51.75-3.95c6.48-6.57 16.57-9.41 25.24-5.75 14.53 5.77 17.71 26.77 8.36 38.31-7.9 10.07-24.49 10.26-33.39 1.42.24 8.2.17 16.38.17 24.58h-12.79v-63.71h12.54c0 1.29-.11 3.86-.15 5.13m7 4.26c-9.6 4-10.11 19.78-.53 24.07 8.15 4.51 19.68-1.61 19-11.32 1.15-9.68-9.93-16.89-18.49-12.75m106.12-10.45c4.17-.07 8.35-.09 12.52-.15.28 9.62-.59 19.3.43 28.88 1.8 9.68 18.75 9.87 20.57.11.79-9.6.07-19.24.32-28.84h12.52c0 9.63.09 19.27 0 28.89a15.28 15.28 0 0 1 -9.13 14.71 34.23 34.23 0 0 1 -29.37-.68c-5.12-2.6-7.8-8.49-7.84-14-.19-9.62 0-19.26 0-28.88" fill="#fff"/></svg>