<svg xmlns="http://www.w3.org/2000/svg" xmlns:xlink="http://www.w3.org/1999/xlink" viewBox="0,0,256,256" width="512px" height="512px" fill-rule="nonzero"><g transform="translate(-37.12,-37.12) scale(1.29,1.29)"><g fill="#ffffff" fill-rule="nonzero" stroke="none" stroke-width="1" stroke-linecap="butt" stroke-linejoin="miter" stroke-miterlimit="10" stroke-dasharray="" stroke-dashoffset="0" font-family="none" font-weight="none" font-size="none" text-anchor="none" style="mix-blend-mode: normal"><g transform="scale(4,4)"><path d="M16,8c-4.418,0 -8,3.582 -8,8v32c0,4.418 3.582,8 8,8h32c4.418,0 8,-3.582 8,-8v-32c0,-4.418 -3.582,-8 -8,-8zM36,23h10v2.57031h-10zM17.14648,23.00195h8.61328c0.935,0 5.99219,-0.06016 5.99219,4.58984c0,2.472 -1.68655,3.30588 -2.43555,3.67188c1.123,0.368 3.18164,1.4098 3.18164,4.5918c0.001,4.932 -5.61528,5.14353 -6.36328,5.14453h-8.98828zM20.98633,26.12109v4.22461h4.12109c0.561,0 2.43164,-0.31612 2.43164,-2.20312c0,-1.887 -2.43364,-2.02148 -2.80664,-2.02148zM41.29883,27c4.959,0 6.30491,3.86997 6.50391,4.79297c0.197,0.923 0.19727,1.7397 0.19727,2.8457h-10.05469c0,1.106 0.58783,3.60156 3.54883,3.60156c0.789,0 1.38166,-0.18669 1.97266,-0.55469c0.591,-0.37 0.78737,-0.73842 0.98438,-1.10742h3.35156c-0.591,1.474 -1.37945,2.58136 -2.56445,3.31836c-1.182,0.737 -2.56267,1.10352 -4.13867,1.10352c-0.986,0 -1.97398,-0.18469 -2.95898,-0.55469c-0.789,-0.37 -1.57602,-0.91866 -2.16602,-1.47266c-0.592,-0.55 -0.98686,-1.28798 -1.38086,-2.20898c-0.395,-0.736 -0.59375,-1.84367 -0.59375,-2.76367c0,-0.919 0.36883,-7 7.29883,-7zM41.11523,29.46289c-2.895,0 -3.36914,2.79061 -3.36914,2.97461h6.3418c-0.198,-0.928 -1.03066,-2.97461 -2.97266,-2.97461zM20.94531,32.91992v4.95703h4.30859c0.374,0 2.99414,-0.12272 2.99414,-2.38672c0.001,-2.267 -2.05814,-2.57031 -2.99414,-2.57031z"></path></g></g></g></svg>