<svg xmlns="http://www.w3.org/2000/svg" xmlns:xlink="http://www.w3.org/1999/xlink" width="500" zoomAndPan="magnify" viewBox="0 0 375 374.999991" height="500" preserveAspectRatio="xMidYMid meet" version="1.2"><defs><clipPath id="fd96a158d2"><path d="M 0 9.75 L 375 9.75 L 375 356.25 L 0 356.25 Z M 0 9.75 "/></clipPath></defs><g id="18f307ffc3"><g clip-rule="nonzero" clip-path="url(#fd96a158d2)"><path style=" stroke:none;fill-rule:nonzero;fill:#ffffff;fill-opacity:1;" d="M 201.671875 9.75 C 106.03125 9.75 28.503906 87.300781 28.503906 182.964844 C 28.492188 193.492188 29.433594 203.9375 31.328125 214.292969 C 33.226562 224.644531 36.042969 234.746094 39.785156 244.585938 L 1.246094 316.867188 C 0.96875 317.382812 0.773438 317.925781 0.652344 318.492188 C 0.527344 319.0625 0.488281 319.636719 0.527344 320.21875 C 0.566406 320.800781 0.683594 321.363281 0.878906 321.910156 C 1.078125 322.460938 1.34375 322.96875 1.683594 323.441406 C 2.023438 323.914062 2.421875 324.332031 2.878906 324.691406 C 3.335938 325.054688 3.832031 325.34375 4.371094 325.566406 C 4.910156 325.789062 5.46875 325.929688 6.046875 325.996094 C 6.625 326.0625 7.199219 326.046875 7.773438 325.949219 L 86.871094 312.65625 C 90.785156 316.132812 94.847656 319.425781 99.0625 322.53125 C 103.273438 325.636719 107.621094 328.542969 112.097656 331.253906 C 116.574219 333.964844 121.167969 336.46875 125.871094 338.757812 C 130.578125 341.050781 135.375 343.125 140.269531 344.980469 C 145.164062 346.835938 150.132812 348.464844 155.175781 349.871094 C 160.21875 351.273438 165.3125 352.445312 170.460938 353.382812 C 175.609375 354.324219 180.789062 355.027344 186.003906 355.496094 C 191.214844 355.964844 196.4375 356.195312 201.671875 356.1875 C 297.3125 356.1875 374.847656 278.632812 374.847656 182.964844 C 374.847656 87.378906 297.234375 9.75 201.671875 9.75 Z M 202.1875 311.011719 C 198.015625 311.03125 193.851562 310.851562 189.695312 310.464844 C 185.542969 310.078125 181.417969 309.488281 177.320312 308.699219 C 173.222656 307.90625 169.175781 306.917969 165.175781 305.726562 C 161.175781 304.539062 157.242188 303.160156 153.378906 301.585938 C 149.515625 300.011719 145.738281 298.25 142.046875 296.304688 C 138.351562 294.359375 134.765625 292.238281 131.28125 289.941406 C 127.796875 287.644531 124.433594 285.183594 121.191406 282.554688 C 117.949219 279.929688 114.84375 277.148438 111.875 274.21875 L 64.492188 282.777344 C 63.921875 282.875 63.351562 282.890625 62.78125 282.828125 C 62.207031 282.765625 61.65625 282.628906 61.121094 282.410156 C 60.589844 282.195312 60.09375 281.910156 59.640625 281.558594 C 59.183594 281.207031 58.785156 280.800781 58.445312 280.335938 C 58.101562 279.871094 57.828125 279.371094 57.625 278.832031 C 57.421875 278.292969 57.296875 277.738281 57.246094 277.164062 C 57.199219 276.589844 57.226562 276.023438 57.335938 275.457031 C 57.445312 274.890625 57.628906 274.351562 57.886719 273.835938 L 81.816406 228.019531 C 79.023438 220.585938 76.941406 212.957031 75.574219 205.132812 C 74.203125 197.3125 73.570312 189.429688 73.671875 181.492188 C 74.464844 111.179688 131.378906 54.921875 201.671875 54.921875 C 272.375 54.921875 329.683594 112.25 329.683594 182.964844 C 329.683594 253.625 272.824219 310.734375 202.1875 311.011719 Z M 202.1875 311.011719 "/></g><path style=" stroke:none;fill-rule:nonzero;fill:#ffffff;fill-opacity:1;" d="M 183.578125 139.789062 L 177.988281 116.1875 C 177.828125 115.515625 177.632812 114.851562 177.40625 114.199219 C 177.175781 113.550781 176.914062 112.910156 176.617188 112.289062 C 176.324219 111.664062 175.996094 111.058594 175.636719 110.46875 C 175.273438 109.878906 174.886719 109.308594 174.464844 108.761719 C 174.046875 108.214844 173.597656 107.6875 173.125 107.1875 C 172.648438 106.6875 172.148438 106.210938 171.625 105.761719 C 171.097656 105.3125 170.550781 104.894531 169.980469 104.503906 C 169.414062 104.113281 168.824219 103.753906 168.21875 103.425781 C 167.609375 103.09375 166.988281 102.800781 166.351562 102.535156 C 165.710938 102.273438 165.0625 102.042969 164.398438 101.847656 C 163.734375 101.65625 163.066406 101.496094 162.386719 101.371094 C 161.707031 101.246094 161.023438 101.160156 160.335938 101.105469 C 159.648438 101.054688 158.957031 101.039062 158.265625 101.058594 C 157.578125 101.082031 156.890625 101.136719 156.207031 101.230469 C 155.523438 101.324219 154.84375 101.453125 154.175781 101.617188 C 153.503906 101.78125 152.84375 101.980469 152.195312 102.214844 L 139.304688 106.855469 C 138.261719 107.230469 137.257812 107.691406 136.292969 108.238281 C 135.328125 108.78125 134.417969 109.40625 133.558594 110.105469 C 132.699219 110.804688 131.90625 111.570312 131.175781 112.40625 C 130.445312 113.238281 129.789062 114.128906 129.210938 115.074219 C 128.632812 116.019531 128.136719 117.003906 127.722656 118.03125 C 127.308594 119.0625 126.984375 120.117188 126.75 121.199219 C 126.515625 122.28125 126.375 123.378906 126.324219 124.484375 C 126.273438 125.59375 126.316406 126.695312 126.453125 127.796875 C 130.945312 164.300781 151.621094 252.613281 246.710938 272.019531 C 247.648438 272.210938 248.597656 272.332031 249.550781 272.386719 C 250.507812 272.4375 251.464844 272.421875 252.417969 272.335938 C 253.371094 272.25 254.316406 272.09375 255.246094 271.871094 C 256.175781 271.648438 257.085938 271.355469 257.976562 271 C 258.867188 270.640625 259.722656 270.222656 260.550781 269.738281 C 261.378906 269.257812 262.167969 268.71875 262.917969 268.121094 C 263.664062 267.523438 264.367188 266.875 265.019531 266.171875 C 265.675781 265.472656 266.273438 264.730469 266.820312 263.941406 L 274.21875 253.25 C 274.585938 252.722656 274.921875 252.175781 275.238281 251.613281 C 275.550781 251.050781 275.835938 250.472656 276.089844 249.882812 C 276.347656 249.289062 276.574219 248.6875 276.769531 248.074219 C 276.96875 247.460938 277.132812 246.839844 277.269531 246.210938 C 277.40625 245.582031 277.511719 244.945312 277.585938 244.304688 C 277.660156 243.667969 277.699219 243.023438 277.710938 242.378906 C 277.722656 241.734375 277.699219 241.09375 277.648438 240.449219 C 277.59375 239.808594 277.511719 239.171875 277.394531 238.539062 C 277.28125 237.902344 277.136719 237.277344 276.957031 236.65625 C 276.78125 236.039062 276.574219 235.429688 276.339844 234.828125 C 276.101562 234.230469 275.835938 233.644531 275.542969 233.070312 C 275.25 232.5 274.925781 231.941406 274.578125 231.398438 C 274.230469 230.859375 273.855469 230.335938 273.453125 229.832031 C 273.054688 229.324219 272.628906 228.84375 272.183594 228.378906 C 271.734375 227.917969 271.265625 227.476562 270.773438 227.058594 C 270.28125 226.644531 269.773438 226.25 269.242188 225.882812 C 269.203125 225.855469 269.160156 225.828125 269.117188 225.796875 L 252.859375 214.726562 C 251.984375 214.128906 251.070312 213.609375 250.109375 213.160156 C 249.152344 212.714844 248.164062 212.347656 247.144531 212.058594 C 246.128906 211.769531 245.09375 211.566406 244.042969 211.445312 C 242.992188 211.324219 241.9375 211.289062 240.882812 211.335938 C 239.824219 211.386719 238.78125 211.519531 237.746094 211.738281 C 236.710938 211.953125 235.699219 212.253906 234.710938 212.636719 C 233.726562 213.015625 232.777344 213.472656 231.863281 214.007812 C 230.949219 214.542969 230.085938 215.148438 229.269531 215.820312 C 228.460938 216.492188 227.601562 217.09375 226.695312 217.625 C 225.789062 218.160156 224.847656 218.617188 223.867188 218.996094 C 222.886719 219.378906 221.882812 219.679688 220.855469 219.898438 C 219.824219 220.121094 218.785156 220.257812 217.738281 220.308594 C 216.6875 220.363281 215.640625 220.332031 214.59375 220.214844 C 213.546875 220.101562 212.519531 219.902344 211.507812 219.621094 C 210.492188 219.339844 209.507812 218.980469 208.554688 218.542969 C 207.597656 218.101562 206.683594 217.589844 205.808594 217.003906 C 195.921875 210.339844 182.535156 199.289062 173.839844 183.964844 C 173.355469 183.109375 172.933594 182.226562 172.578125 181.308594 C 172.222656 180.390625 171.9375 179.453125 171.722656 178.492188 C 171.511719 177.53125 171.367188 176.5625 171.296875 175.582031 C 171.230469 174.601562 171.234375 173.621094 171.308594 172.640625 C 171.386719 171.660156 171.539062 170.691406 171.757812 169.730469 C 171.980469 168.773438 172.273438 167.839844 172.636719 166.921875 C 172.996094 166.007812 173.425781 165.128906 173.921875 164.277344 C 174.414062 163.425781 174.96875 162.617188 175.582031 161.851562 L 179.765625 156.648438 C 180.703125 155.480469 181.5 154.222656 182.152344 152.875 C 182.800781 151.527344 183.292969 150.121094 183.621094 148.660156 C 183.953125 147.199219 184.113281 145.71875 184.105469 144.222656 C 184.097656 142.726562 183.921875 141.246094 183.578125 139.789062 Z M 183.578125 139.789062 "/></g></svg>